<svg xmlns="http://www.w3.org/2000/svg" xmlns:xlink="http://www.w3.org/1999/xlink" width="500" zoomAndPan="magnify" viewBox="0 0 375 374.999991" height="500" preserveAspectRatio="xMidYMid meet" version="1.0"><defs><g/><clipPath id="657e64359f"><path d="M 63 200 L 181 200 L 181 318 L 63 318 Z M 63 200 " clip-rule="nonzero"/></clipPath><clipPath id="840b9ec865"><path d="M 129.582031 200.109375 L 180.039062 247.621094 L 113.75 318.019531 L 63.292969 270.507812 Z M 129.582031 200.109375 " clip-rule="nonzero"/></clipPath><clipPath id="2a92a42d90"><path d="M 107.410156 109.53125 L 267.589844 109.53125 L 267.589844 269.710938 L 107.410156 269.710938 Z M 107.410156 109.53125 " clip-rule="nonzero"/></clipPath><clipPath id="25c848c349"><path d="M 187.5 109.53125 C 143.269531 109.53125 107.410156 145.386719 107.410156 189.621094 C 107.410156 233.851562 143.269531 269.710938 187.5 269.710938 C 231.730469 269.710938 267.589844 233.851562 267.589844 189.621094 C 267.589844 145.386719 231.730469 109.53125 187.5 109.53125 Z M 187.5 109.53125 " clip-rule="nonzero"/></clipPath><clipPath id="19dc58477c"><path d="M 51 154.007812 L 227.265625 154.007812 L 227.265625 330 L 51 330 Z M 51 154.007812 " clip-rule="nonzero"/></clipPath></defs><g fill="#020202" fill-opacity="1"><g transform="translate(44.328639, 301.174596)"><g><path d="M 23.640625 -110.828125 C 23.640625 -132.191406 28.800781 -151.710938 39.125 -169.390625 C 49.457031 -187.078125 63.816406 -201 82.203125 -211.15625 C 100.585938 -221.3125 121.335938 -226.390625 144.453125 -226.390625 C 167.554688 -226.390625 188.125 -221.3125 206.15625 -211.15625 C 224.195312 -201 238.207031 -187.164062 248.1875 -169.65625 C 258.164062 -152.144531 263.15625 -132.535156 263.15625 -110.828125 C 263.15625 -89.117188 258.164062 -69.421875 248.1875 -51.734375 C 238.207031 -34.054688 224.113281 -20.140625 205.90625 -9.984375 C 187.695312 0.171875 166.859375 5.25 143.390625 5.25 C 120.628906 5.25 100.144531 0.4375 81.9375 -9.1875 C 63.726562 -18.820312 49.457031 -32.390625 39.125 -49.890625 C 28.800781 -67.398438 23.640625 -87.710938 23.640625 -110.828125 Z M 73.015625 -110.3125 C 73.015625 -96.65625 76.078125 -84.046875 82.203125 -72.484375 C 88.328125 -60.929688 96.726562 -51.828125 107.40625 -45.171875 C 118.09375 -38.515625 129.914062 -35.1875 142.875 -35.1875 C 163.1875 -35.1875 179.992188 -42.363281 193.296875 -56.71875 C 206.609375 -71.082031 213.265625 -88.945312 213.265625 -110.3125 C 213.265625 -131.664062 206.609375 -149.609375 193.296875 -164.140625 C 179.992188 -178.671875 163.1875 -185.9375 142.875 -185.9375 C 129.5625 -185.9375 117.648438 -182.519531 107.140625 -175.6875 C 96.640625 -168.863281 88.328125 -159.675781 82.203125 -148.125 C 76.078125 -136.570312 73.015625 -123.96875 73.015625 -110.3125 Z M 73.015625 -110.3125 "/></g></g></g><g clip-path="url(#657e64359f)"><g clip-path="url(#840b9ec865)"><path fill="#f3f4f6" d="M 129.582031 200.109375 L 180.039062 247.621094 L 113.78125 317.988281 L 63.324219 270.476562 Z M 129.582031 200.109375 " fill-opacity="1" fill-rule="nonzero"/></g></g><g clip-path="url(#2a92a42d90)"><g clip-path="url(#25c848c349)"><path fill="#8cc342" d="M 107.410156 109.53125 L 267.589844 109.53125 L 267.589844 269.710938 L 107.410156 269.710938 Z M 107.410156 109.53125 " fill-opacity="1" fill-rule="nonzero"/></g></g><g clip-path="url(#19dc58477c)"><path fill="#000000" d="M 184.789062 240.601562 C 195.28125 230.117188 227.195312 195.425781 227.195312 195.425781 C 227.195312 195.425781 224.929688 191.96875 219.453125 185.671875 L 184.277344 220.835938 C 182.304688 222.804688 179.140625 222.804688 177.195312 220.847656 C 175.230469 218.890625 175.230469 215.726562 177.203125 213.753906 L 212.699219 178.257812 C 211.300781 176.777344 209.769531 175.226562 208.128906 173.5625 C 206.300781 171.742188 204.597656 170.105469 203 168.578125 L 167.824219 203.753906 C 165.851562 205.710938 162.703125 205.710938 160.757812 203.753906 C 158.792969 201.789062 158.777344 198.632812 160.742188 196.671875 L 195.578125 161.84375 C 189.414062 156.488281 185.96875 154.175781 185.96875 154.175781 C 185.96875 154.175781 156.625 180.527344 140.667969 196.476562 C 122.871094 214.273438 139.019531 230.664062 132.003906 237.664062 C 125.007812 244.648438 92.925781 270.644531 76.550781 287.042969 C 46.5 317.070312 49.761719 321.742188 54.632812 326.617188 C 59.503906 331.515625 64.175781 334.75 94.214844 304.707031 C 110.601562 288.332031 136.589844 256.265625 143.582031 249.265625 C 150.585938 242.253906 166.734375 258.636719 184.789062 240.601562 Z M 184.789062 240.601562 " fill-opacity="1" fill-rule="nonzero"/></g></svg>