<svg xmlns="http://www.w3.org/2000/svg" xmlns:xlink="http://www.w3.org/1999/xlink" width="500" zoomAndPan="magnify" viewBox="0 0 375 374.999991" height="500" preserveAspectRatio="xMidYMid meet" version="1.0"><defs><g/><clipPath id="6975b503c5"><path d="M 105 189 L 137 189 L 137 222 L 105 222 Z M 105 189 " clip-rule="nonzero"/></clipPath><clipPath id="a850eddcc9"><path d="M 123.011719 189.578125 L 136.621094 202.390625 L 118.746094 221.378906 L 105.136719 208.566406 Z M 123.011719 189.578125 " clip-rule="nonzero"/></clipPath><clipPath id="bed6a8e371"><path d="M 117.035156 165.152344 L 160.234375 165.152344 L 160.234375 208.347656 L 117.035156 208.347656 Z M 117.035156 165.152344 " clip-rule="nonzero"/></clipPath><clipPath id="03b5b6ced7"><path d="M 138.632812 165.152344 C 126.703125 165.152344 117.035156 174.820312 117.035156 186.75 C 117.035156 198.679688 126.703125 208.347656 138.632812 208.347656 C 150.5625 208.347656 160.234375 198.679688 160.234375 186.75 C 160.234375 174.820312 150.5625 165.152344 138.632812 165.152344 Z M 138.632812 165.152344 " clip-rule="nonzero"/></clipPath><clipPath id="df265fa1ca"><path d="M 101 177.144531 L 149.359375 177.144531 L 149.359375 225 L 101 225 Z M 101 177.144531 " clip-rule="nonzero"/></clipPath></defs><g fill="#020202" fill-opacity="1"><g transform="translate(54.974525, 216.835224)"><g><path d="M 16.296875 -46.890625 L 6.234375 -46.890625 L 6.234375 -58.78125 L 16.296875 -58.78125 L 16.296875 -83.4375 C 16.296875 -91.9375 18.226562 -98.453125 22.09375 -102.984375 C 25.96875 -107.515625 31.632812 -109.78125 39.09375 -109.78125 C 41.175781 -109.78125 43.394531 -109.472656 45.75 -108.859375 C 48.113281 -108.242188 50.191406 -107.367188 51.984375 -106.234375 L 46.328125 -96.609375 C 44.910156 -98.117188 42.925781 -98.875 40.375 -98.875 C 36.78125 -98.875 34.0625 -97.644531 32.21875 -95.1875 C 30.382812 -92.738281 29.46875 -88.773438 29.46875 -83.296875 L 29.46875 -58.78125 L 48.15625 -58.78125 L 48.15625 -46.890625 L 29.46875 -46.890625 L 29.46875 0 L 16.296875 0 Z M 16.296875 -46.890625 "/></g></g></g><g fill="#020202" fill-opacity="1"><g transform="translate(99.737314, 216.835224)"><g><path d="M 6.375 -29.890625 C 6.375 -35.648438 7.765625 -40.914062 10.546875 -45.6875 C 13.335938 -50.457031 17.210938 -54.207031 22.171875 -56.9375 C 27.128906 -59.675781 32.722656 -61.046875 38.953125 -61.046875 C 45.191406 -61.046875 50.738281 -59.675781 55.59375 -56.9375 C 60.457031 -54.207031 64.234375 -50.476562 66.921875 -45.75 C 69.617188 -41.03125 70.96875 -35.742188 70.96875 -29.890625 C 70.96875 -24.035156 69.617188 -18.722656 66.921875 -13.953125 C 64.234375 -9.179688 60.429688 -5.425781 55.515625 -2.6875 C 50.609375 0.0507812 44.992188 1.421875 38.671875 1.421875 C 32.535156 1.421875 27.007812 0.125 22.09375 -2.46875 C 17.1875 -5.070312 13.335938 -8.734375 10.546875 -13.453125 C 7.765625 -18.179688 6.375 -23.660156 6.375 -29.890625 Z M 19.6875 -29.75 C 19.6875 -26.0625 20.507812 -22.660156 22.15625 -19.546875 C 23.8125 -16.429688 26.082031 -13.972656 28.96875 -12.171875 C 31.851562 -10.378906 35.039062 -9.484375 38.53125 -9.484375 C 44.007812 -9.484375 48.539062 -11.421875 52.125 -15.296875 C 55.71875 -19.171875 57.515625 -23.988281 57.515625 -29.75 C 57.515625 -35.507812 55.71875 -40.347656 52.125 -44.265625 C 48.539062 -48.179688 44.007812 -50.140625 38.53125 -50.140625 C 34.9375 -50.140625 31.722656 -49.21875 28.890625 -47.375 C 26.054688 -45.539062 23.8125 -43.0625 22.15625 -39.9375 C 20.507812 -36.820312 19.6875 -33.425781 19.6875 -29.75 Z M 19.6875 -29.75 "/></g></g></g><g fill="#020202" fill-opacity="1"><g transform="translate(167.873378, 216.835224)"><g><path d="M 6.375 -29.890625 C 6.375 -35.648438 7.765625 -40.914062 10.546875 -45.6875 C 13.335938 -50.457031 17.210938 -54.207031 22.171875 -56.9375 C 27.128906 -59.675781 32.722656 -61.046875 38.953125 -61.046875 C 45.191406 -61.046875 50.738281 -59.675781 55.59375 -56.9375 C 60.457031 -54.207031 64.234375 -50.476562 66.921875 -45.75 C 69.617188 -41.03125 70.96875 -35.742188 70.96875 -29.890625 C 70.96875 -24.035156 69.617188 -18.722656 66.921875 -13.953125 C 64.234375 -9.179688 60.429688 -5.425781 55.515625 -2.6875 C 50.609375 0.0507812 44.992188 1.421875 38.671875 1.421875 C 32.535156 1.421875 27.007812 0.125 22.09375 -2.46875 C 17.1875 -5.070312 13.335938 -8.734375 10.546875 -13.453125 C 7.765625 -18.179688 6.375 -23.660156 6.375 -29.890625 Z M 19.6875 -29.75 C 19.6875 -26.0625 20.507812 -22.660156 22.15625 -19.546875 C 23.8125 -16.429688 26.082031 -13.972656 28.96875 -12.171875 C 31.851562 -10.378906 35.039062 -9.484375 38.53125 -9.484375 C 44.007812 -9.484375 48.539062 -11.421875 52.125 -15.296875 C 55.71875 -19.171875 57.515625 -23.988281 57.515625 -29.75 C 57.515625 -35.507812 55.71875 -40.347656 52.125 -44.265625 C 48.539062 -48.179688 44.007812 -50.140625 38.53125 -50.140625 C 34.9375 -50.140625 31.722656 -49.21875 28.890625 -47.375 C 26.054688 -45.539062 23.8125 -43.0625 22.15625 -39.9375 C 20.507812 -36.820312 19.6875 -33.425781 19.6875 -29.75 Z M 19.6875 -29.75 "/></g></g></g><g fill="#020202" fill-opacity="1"><g transform="translate(236.009448, 216.835224)"><g><path d="M 72.671875 -109.78125 L 72.671875 0 L 59.359375 0 L 59.359375 -9.203125 C 56.523438 -5.898438 53.050781 -3.300781 48.9375 -1.40625 C 44.832031 0.476562 40.320312 1.421875 35.40625 1.421875 C 29.9375 1.421875 24.976562 0.0976562 20.53125 -2.546875 C 16.09375 -5.191406 12.625 -8.898438 10.125 -13.671875 C 7.625 -18.441406 6.375 -23.941406 6.375 -30.171875 C 6.375 -36.492188 7.695312 -41.992188 10.34375 -46.671875 C 12.988281 -51.347656 16.625 -54.910156 21.25 -57.359375 C 25.875 -59.816406 31.113281 -61.046875 36.96875 -61.046875 C 41.40625 -61.046875 45.675781 -60.125 49.78125 -58.28125 C 53.894531 -56.445312 57.132812 -53.925781 59.5 -50.71875 L 59.5 -109.78125 Z M 39.515625 -9.921875 C 44.617188 -9.921875 48.941406 -11.285156 52.484375 -14.015625 C 56.023438 -16.753906 58.316406 -20.441406 59.359375 -25.078125 L 59.359375 -36.125 C 58.222656 -40.375 55.8125 -43.84375 52.125 -46.53125 C 48.445312 -49.226562 44.242188 -50.578125 39.515625 -50.578125 C 35.929688 -50.578125 32.628906 -49.703125 29.609375 -47.953125 C 26.585938 -46.203125 24.175781 -43.789062 22.375 -40.71875 C 20.582031 -37.65625 19.6875 -34.1875 19.6875 -30.3125 C 19.6875 -26.53125 20.582031 -23.082031 22.375 -19.96875 C 24.175781 -16.851562 26.585938 -14.398438 29.609375 -12.609375 C 32.628906 -10.816406 35.929688 -9.921875 39.515625 -9.921875 Z M 39.515625 -9.921875 "/></g></g></g><g clip-path="url(#6975b503c5)"><g clip-path="url(#a850eddcc9)"><path fill="#f3f4f6" d="M 123.011719 189.578125 L 136.621094 202.390625 L 118.753906 221.371094 L 105.144531 208.554688 Z M 123.011719 189.578125 " fill-opacity="1" fill-rule="nonzero"/></g></g><g clip-path="url(#bed6a8e371)"><g clip-path="url(#03b5b6ced7)"><path fill="#8cc342" d="M 117.035156 165.152344 L 160.234375 165.152344 L 160.234375 208.347656 L 117.035156 208.347656 Z M 117.035156 165.152344 " fill-opacity="1" fill-rule="nonzero"/></g></g><g clip-path="url(#df265fa1ca)"><path fill="#000000" d="M 137.902344 200.5 C 140.730469 197.671875 149.339844 188.316406 149.339844 188.316406 C 149.339844 188.316406 148.730469 187.382812 147.25 185.683594 L 137.765625 195.167969 C 137.234375 195.699219 136.378906 195.699219 135.855469 195.171875 C 135.324219 194.644531 135.324219 193.789062 135.855469 193.257812 L 145.429688 183.683594 C 145.054688 183.285156 144.640625 182.867188 144.199219 182.417969 C 143.703125 181.929688 143.246094 181.488281 142.8125 181.074219 L 133.328125 190.5625 C 132.796875 191.089844 131.945312 191.089844 131.421875 190.5625 C 130.890625 190.03125 130.886719 189.179688 131.417969 188.652344 L 140.8125 179.257812 C 139.148438 177.816406 138.222656 177.191406 138.222656 177.191406 C 138.222656 177.191406 130.308594 184.296875 126.003906 188.597656 C 121.203125 193.398438 125.558594 197.820312 123.667969 199.707031 C 121.78125 201.589844 113.128906 208.601562 108.710938 213.023438 C 100.609375 221.121094 101.488281 222.382812 102.800781 223.695312 C 104.113281 225.019531 105.375 225.890625 113.476562 217.789062 C 117.894531 213.371094 124.902344 204.722656 126.789062 202.835938 C 128.679688 200.945312 133.03125 205.363281 137.902344 200.5 Z M 137.902344 200.5 " fill-opacity="1" fill-rule="nonzero"/></g><g fill="#8cc342" fill-opacity="0.4"><g transform="translate(143.431212, 145.71306)"><g><path d="M 18.09375 -20.6875 C 15.71875 -22 13.65625 -22.65625 11.90625 -22.65625 C 10.71875 -22.65625 9.796875 -22.421875 9.140625 -21.953125 C 8.484375 -21.484375 8.15625 -20.78125 8.15625 -19.84375 C 8.15625 -18.976562 8.628906 -18.21875 9.578125 -17.5625 C 10.535156 -16.90625 11.804688 -16.28125 13.390625 -15.6875 C 14.671875 -15.21875 15.769531 -14.675781 16.6875 -14.0625 C 17.601562 -13.457031 18.363281 -12.625 18.96875 -11.5625 C 19.570312 -10.5 19.875 -9.15625 19.875 -7.53125 C 19.875 -6.113281 19.507812 -4.804688 18.78125 -3.609375 C 18.050781 -2.410156 16.976562 -1.457031 15.5625 -0.75 C 14.15625 -0.0507812 12.476562 0.296875 10.53125 0.296875 C 8.894531 0.296875 7.273438 0.0546875 5.671875 -0.421875 C 4.066406 -0.910156 2.570312 -1.644531 1.1875 -2.625 L 3.5625 -6.828125 C 4.5 -6.128906 5.570312 -5.554688 6.78125 -5.109375 C 8 -4.671875 9.085938 -4.453125 10.046875 -4.453125 C 11.179688 -4.453125 12.171875 -4.691406 13.015625 -5.171875 C 13.859375 -5.648438 14.28125 -6.4375 14.28125 -7.53125 C 14.28125 -8.9375 12.957031 -10.160156 10.3125 -11.203125 C 8.75 -11.816406 7.445312 -12.40625 6.40625 -12.96875 C 5.375 -13.539062 4.476562 -14.359375 3.71875 -15.421875 C 2.96875 -16.484375 2.59375 -17.816406 2.59375 -19.421875 C 2.59375 -21.773438 3.363281 -23.664062 4.90625 -25.09375 C 6.457031 -26.53125 8.519531 -27.3125 11.09375 -27.4375 C 13.113281 -27.4375 14.800781 -27.207031 16.15625 -26.75 C 17.519531 -26.289062 18.847656 -25.644531 20.140625 -24.8125 Z M 18.09375 -20.6875 "/></g></g></g><g fill="#8cc342" fill-opacity="0.4"><g transform="translate(168.719323, 145.71306)"><g><path d="M 17.015625 -5.34375 L 7.96875 -5.34375 L 5.75 0 L 0.4375 0 L 12.75 -28.359375 L 13.046875 -28.359375 L 25.359375 0 L 19.125 0 Z M 15.234375 -9.859375 L 12.609375 -16.5 L 9.859375 -9.859375 Z M 15.234375 -9.859375 "/></g></g></g><g fill="#8cc342" fill-opacity="0.4"><g transform="translate(198.197265, 145.71306)"><g><path d="M 20.578125 -27.296875 L 20.578125 -22.09375 L 8.90625 -22.09375 L 8.90625 -15.90625 L 19.015625 -15.90625 L 19.015625 -10.71875 L 8.90625 -10.71875 L 8.90625 0 L 3.515625 0 L 3.515625 -27.296875 Z M 20.578125 -27.296875 "/></g></g></g><g fill="#8cc342" fill-opacity="0.4"><g transform="translate(224.115705, 145.71306)"><g><path d="M 22.140625 -27.296875 L 22.140625 -22.09375 L 8.90625 -22.09375 L 8.90625 -16.28125 L 20.609375 -16.28125 L 20.609375 -11.09375 L 8.90625 -11.09375 L 8.90625 -5.1875 L 22.65625 -5.1875 L 22.65625 0 L 3.515625 0 L 3.515625 -27.296875 Z M 22.140625 -27.296875 "/></g></g></g><g fill="#8cc342" fill-opacity="1"><g transform="translate(143.431212, 145.71306)"><g><path d="M 18.09375 -20.6875 C 15.71875 -22 13.65625 -22.65625 11.90625 -22.65625 C 10.71875 -22.65625 9.796875 -22.421875 9.140625 -21.953125 C 8.484375 -21.484375 8.15625 -20.78125 8.15625 -19.84375 C 8.15625 -18.976562 8.628906 -18.21875 9.578125 -17.5625 C 10.535156 -16.90625 11.804688 -16.28125 13.390625 -15.6875 C 14.671875 -15.21875 15.769531 -14.675781 16.6875 -14.0625 C 17.601562 -13.457031 18.363281 -12.625 18.96875 -11.5625 C 19.570312 -10.5 19.875 -9.15625 19.875 -7.53125 C 19.875 -6.113281 19.507812 -4.804688 18.78125 -3.609375 C 18.050781 -2.410156 16.976562 -1.457031 15.5625 -0.75 C 14.15625 -0.0507812 12.476562 0.296875 10.53125 0.296875 C 8.894531 0.296875 7.273438 0.0546875 5.671875 -0.421875 C 4.066406 -0.910156 2.570312 -1.644531 1.1875 -2.625 L 3.5625 -6.828125 C 4.5 -6.128906 5.570312 -5.554688 6.78125 -5.109375 C 8 -4.671875 9.085938 -4.453125 10.046875 -4.453125 C 11.179688 -4.453125 12.171875 -4.691406 13.015625 -5.171875 C 13.859375 -5.648438 14.28125 -6.4375 14.28125 -7.53125 C 14.28125 -8.9375 12.957031 -10.160156 10.3125 -11.203125 C 8.75 -11.816406 7.445312 -12.40625 6.40625 -12.96875 C 5.375 -13.539062 4.476562 -14.359375 3.71875 -15.421875 C 2.96875 -16.484375 2.59375 -17.816406 2.59375 -19.421875 C 2.59375 -21.773438 3.363281 -23.664062 4.90625 -25.09375 C 6.457031 -26.53125 8.519531 -27.3125 11.09375 -27.4375 C 13.113281 -27.4375 14.800781 -27.207031 16.15625 -26.75 C 17.519531 -26.289062 18.847656 -25.644531 20.140625 -24.8125 Z M 18.09375 -20.6875 "/></g></g></g><g fill="#8cc342" fill-opacity="1"><g transform="translate(168.719323, 145.71306)"><g><path d="M 17.015625 -5.34375 L 7.96875 -5.34375 L 5.75 0 L 0.4375 0 L 12.75 -28.359375 L 13.046875 -28.359375 L 25.359375 0 L 19.125 0 Z M 15.234375 -9.859375 L 12.609375 -16.5 L 9.859375 -9.859375 Z M 15.234375 -9.859375 "/></g></g></g><g fill="#8cc342" fill-opacity="1"><g transform="translate(198.197265, 145.71306)"><g><path d="M 20.578125 -27.296875 L 20.578125 -22.09375 L 8.90625 -22.09375 L 8.90625 -15.90625 L 19.015625 -15.90625 L 19.015625 -10.71875 L 8.90625 -10.71875 L 8.90625 0 L 3.515625 0 L 3.515625 -27.296875 Z M 20.578125 -27.296875 "/></g></g></g><g fill="#8cc342" fill-opacity="1"><g transform="translate(224.115705, 145.71306)"><g><path d="M 22.140625 -27.296875 L 22.140625 -22.09375 L 8.90625 -22.09375 L 8.90625 -16.28125 L 20.609375 -16.28125 L 20.609375 -11.09375 L 8.90625 -11.09375 L 8.90625 -5.1875 L 22.65625 -5.1875 L 22.65625 0 L 3.515625 0 L 3.515625 -27.296875 Z M 22.140625 -27.296875 "/></g></g></g><g fill="#8cc342" fill-opacity="0.4"><g transform="translate(85.177418, 264.034159)"><g><path d="M 23.984375 -2.265625 C 23.296875 -1.691406 22.195312 -1.117188 20.6875 -0.546875 C 19.175781 0.015625 17.535156 0.296875 15.765625 0.296875 C 12.921875 0.296875 10.445312 -0.316406 8.34375 -1.546875 C 6.238281 -2.785156 4.628906 -4.445312 3.515625 -6.53125 C 2.410156 -8.625 1.859375 -10.921875 1.859375 -13.421875 C 1.859375 -16.160156 2.410156 -18.601562 3.515625 -20.75 C 4.628906 -22.90625 6.1875 -24.582031 8.1875 -25.78125 C 10.195312 -26.988281 12.507812 -27.59375 15.125 -27.59375 C 16.78125 -27.59375 18.3125 -27.367188 19.71875 -26.921875 C 21.132812 -26.472656 22.375 -25.914062 23.4375 -25.25 L 21.3125 -20.171875 C 19.363281 -21.648438 17.363281 -22.390625 15.3125 -22.390625 C 13.925781 -22.390625 12.628906 -22.003906 11.421875 -21.234375 C 10.210938 -20.472656 9.25 -19.429688 8.53125 -18.109375 C 7.8125 -16.785156 7.453125 -15.320312 7.453125 -13.71875 C 7.453125 -11.96875 7.785156 -10.429688 8.453125 -9.109375 C 9.117188 -7.785156 10.066406 -6.75 11.296875 -6 C 12.535156 -5.257812 13.984375 -4.890625 15.640625 -4.890625 C 16.984375 -4.890625 18.1875 -5.101562 19.25 -5.53125 C 20.3125 -5.96875 21.148438 -6.484375 21.765625 -7.078125 Z M 23.984375 -2.265625 "/></g></g></g><g fill="#8cc342" fill-opacity="0.4"><g transform="translate(114.692427, 264.034159)"><g><path d="M 26.46875 0 L 21.09375 0 L 21.09375 -11.09375 L 8.90625 -11.09375 L 8.90625 0 L 3.515625 0 L 3.515625 -27.296875 L 8.90625 -27.296875 L 8.90625 -16.28125 L 21.09375 -16.28125 L 21.09375 -27.296875 L 26.46875 -27.296875 Z M 26.46875 0 "/></g></g></g><g fill="#8cc342" fill-opacity="0.4"><g transform="translate(148.360187, 264.034159)"><g><path d="M 22.140625 -27.296875 L 22.140625 -22.09375 L 8.90625 -22.09375 L 8.90625 -16.28125 L 20.609375 -16.28125 L 20.609375 -11.09375 L 8.90625 -11.09375 L 8.90625 -5.1875 L 22.65625 -5.1875 L 22.65625 0 L 3.515625 0 L 3.515625 -27.296875 Z M 22.140625 -27.296875 "/></g></g></g><g fill="#8cc342" fill-opacity="0.4"><g transform="translate(176.725775, 264.034159)"><g><path d="M 23.984375 -2.265625 C 23.296875 -1.691406 22.195312 -1.117188 20.6875 -0.546875 C 19.175781 0.015625 17.535156 0.296875 15.765625 0.296875 C 12.921875 0.296875 10.445312 -0.316406 8.34375 -1.546875 C 6.238281 -2.785156 4.628906 -4.445312 3.515625 -6.53125 C 2.410156 -8.625 1.859375 -10.921875 1.859375 -13.421875 C 1.859375 -16.160156 2.410156 -18.601562 3.515625 -20.75 C 4.628906 -22.90625 6.1875 -24.582031 8.1875 -25.78125 C 10.195312 -26.988281 12.507812 -27.59375 15.125 -27.59375 C 16.78125 -27.59375 18.3125 -27.367188 19.71875 -26.921875 C 21.132812 -26.472656 22.375 -25.914062 23.4375 -25.25 L 21.3125 -20.171875 C 19.363281 -21.648438 17.363281 -22.390625 15.3125 -22.390625 C 13.925781 -22.390625 12.628906 -22.003906 11.421875 -21.234375 C 10.210938 -20.472656 9.25 -19.429688 8.53125 -18.109375 C 7.8125 -16.785156 7.453125 -15.320312 7.453125 -13.71875 C 7.453125 -11.96875 7.785156 -10.429688 8.453125 -9.109375 C 9.117188 -7.785156 10.066406 -6.75 11.296875 -6 C 12.535156 -5.257812 13.984375 -4.890625 15.640625 -4.890625 C 16.984375 -4.890625 18.1875 -5.101562 19.25 -5.53125 C 20.3125 -5.96875 21.148438 -6.484375 21.765625 -7.078125 Z M 23.984375 -2.265625 "/></g></g></g><g fill="#8cc342" fill-opacity="0.4"><g transform="translate(206.240784, 264.034159)"><g><path d="M 8.828125 -16.203125 L 9.640625 -17.234375 L 18.546875 -27.296875 L 25.515625 -27.296875 L 14.234375 -15.046875 L 25.546875 0 L 18.71875 0 L 10.3125 -11.640625 L 8.96875 -10.3125 L 8.96875 0 L 3.515625 0 L 3.515625 -27.296875 L 8.96875 -27.296875 L 8.96875 -17.578125 Z M 8.828125 -16.203125 "/></g></g></g><g fill="#8cc342" fill-opacity="0.4"><g transform="translate(236.015345, 264.034159)"><g><path d="M 22.140625 -27.296875 L 22.140625 -22.09375 L 8.90625 -22.09375 L 8.90625 -16.28125 L 20.609375 -16.28125 L 20.609375 -11.09375 L 8.90625 -11.09375 L 8.90625 -5.1875 L 22.65625 -5.1875 L 22.65625 0 L 3.515625 0 L 3.515625 -27.296875 Z M 22.140625 -27.296875 "/></g></g></g><g fill="#8cc342" fill-opacity="0.4"><g transform="translate(264.380932, 264.034159)"><g><path d="M 18.25 0 L 12.5 -8.671875 L 8.90625 -8.671875 L 8.90625 0 L 3.515625 0 L 3.515625 -27.296875 L 11.796875 -27.296875 C 15.179688 -27.296875 17.804688 -26.472656 19.671875 -24.828125 C 21.535156 -23.179688 22.46875 -20.9375 22.46875 -18.09375 C 22.46875 -16.414062 22.113281 -14.835938 21.40625 -13.359375 C 20.707031 -11.890625 19.628906 -10.738281 18.171875 -9.90625 L 24.515625 0 Z M 8.90625 -13.875 L 12.71875 -13.875 C 14.175781 -13.875 15.238281 -14.296875 15.90625 -15.140625 C 16.570312 -15.992188 16.90625 -16.914062 16.90625 -17.90625 C 16.90625 -18.894531 16.617188 -19.835938 16.046875 -20.734375 C 15.484375 -21.640625 14.382812 -22.09375 12.75 -22.09375 L 8.90625 -22.09375 Z M 8.90625 -13.875 "/></g></g></g><g fill="#000000" fill-opacity="1"><g transform="translate(85.177418, 264.034159)"><g><path d="M 23.984375 -2.265625 C 23.296875 -1.691406 22.195312 -1.117188 20.6875 -0.546875 C 19.175781 0.015625 17.535156 0.296875 15.765625 0.296875 C 12.921875 0.296875 10.445312 -0.316406 8.34375 -1.546875 C 6.238281 -2.785156 4.628906 -4.445312 3.515625 -6.53125 C 2.410156 -8.625 1.859375 -10.921875 1.859375 -13.421875 C 1.859375 -16.160156 2.410156 -18.601562 3.515625 -20.75 C 4.628906 -22.90625 6.1875 -24.582031 8.1875 -25.78125 C 10.195312 -26.988281 12.507812 -27.59375 15.125 -27.59375 C 16.78125 -27.59375 18.3125 -27.367188 19.71875 -26.921875 C 21.132812 -26.472656 22.375 -25.914062 23.4375 -25.25 L 21.3125 -20.171875 C 19.363281 -21.648438 17.363281 -22.390625 15.3125 -22.390625 C 13.925781 -22.390625 12.628906 -22.003906 11.421875 -21.234375 C 10.210938 -20.472656 9.25 -19.429688 8.53125 -18.109375 C 7.8125 -16.785156 7.453125 -15.320312 7.453125 -13.71875 C 7.453125 -11.96875 7.785156 -10.429688 8.453125 -9.109375 C 9.117188 -7.785156 10.066406 -6.75 11.296875 -6 C 12.535156 -5.257812 13.984375 -4.890625 15.640625 -4.890625 C 16.984375 -4.890625 18.1875 -5.101562 19.25 -5.53125 C 20.3125 -5.96875 21.148438 -6.484375 21.765625 -7.078125 Z M 23.984375 -2.265625 "/></g></g></g><g fill="#000000" fill-opacity="1"><g transform="translate(114.692427, 264.034159)"><g><path d="M 26.46875 0 L 21.09375 0 L 21.09375 -11.09375 L 8.90625 -11.09375 L 8.90625 0 L 3.515625 0 L 3.515625 -27.296875 L 8.90625 -27.296875 L 8.90625 -16.28125 L 21.09375 -16.28125 L 21.09375 -27.296875 L 26.46875 -27.296875 Z M 26.46875 0 "/></g></g></g><g fill="#000000" fill-opacity="1"><g transform="translate(148.360187, 264.034159)"><g><path d="M 22.140625 -27.296875 L 22.140625 -22.09375 L 8.90625 -22.09375 L 8.90625 -16.28125 L 20.609375 -16.28125 L 20.609375 -11.09375 L 8.90625 -11.09375 L 8.90625 -5.1875 L 22.65625 -5.1875 L 22.65625 0 L 3.515625 0 L 3.515625 -27.296875 Z M 22.140625 -27.296875 "/></g></g></g><g fill="#000000" fill-opacity="1"><g transform="translate(176.725775, 264.034159)"><g><path d="M 23.984375 -2.265625 C 23.296875 -1.691406 22.195312 -1.117188 20.6875 -0.546875 C 19.175781 0.015625 17.535156 0.296875 15.765625 0.296875 C 12.921875 0.296875 10.445312 -0.316406 8.34375 -1.546875 C 6.238281 -2.785156 4.628906 -4.445312 3.515625 -6.53125 C 2.410156 -8.625 1.859375 -10.921875 1.859375 -13.421875 C 1.859375 -16.160156 2.410156 -18.601562 3.515625 -20.75 C 4.628906 -22.90625 6.1875 -24.582031 8.1875 -25.78125 C 10.195312 -26.988281 12.507812 -27.59375 15.125 -27.59375 C 16.78125 -27.59375 18.3125 -27.367188 19.71875 -26.921875 C 21.132812 -26.472656 22.375 -25.914062 23.4375 -25.25 L 21.3125 -20.171875 C 19.363281 -21.648438 17.363281 -22.390625 15.3125 -22.390625 C 13.925781 -22.390625 12.628906 -22.003906 11.421875 -21.234375 C 10.210938 -20.472656 9.25 -19.429688 8.53125 -18.109375 C 7.8125 -16.785156 7.453125 -15.320312 7.453125 -13.71875 C 7.453125 -11.96875 7.785156 -10.429688 8.453125 -9.109375 C 9.117188 -7.785156 10.066406 -6.75 11.296875 -6 C 12.535156 -5.257812 13.984375 -4.890625 15.640625 -4.890625 C 16.984375 -4.890625 18.1875 -5.101562 19.25 -5.53125 C 20.3125 -5.96875 21.148438 -6.484375 21.765625 -7.078125 Z M 23.984375 -2.265625 "/></g></g></g><g fill="#000000" fill-opacity="1"><g transform="translate(206.240784, 264.034159)"><g><path d="M 8.828125 -16.203125 L 9.640625 -17.234375 L 18.546875 -27.296875 L 25.515625 -27.296875 L 14.234375 -15.046875 L 25.546875 0 L 18.71875 0 L 10.3125 -11.640625 L 8.96875 -10.3125 L 8.96875 0 L 3.515625 0 L 3.515625 -27.296875 L 8.96875 -27.296875 L 8.96875 -17.578125 Z M 8.828125 -16.203125 "/></g></g></g><g fill="#000000" fill-opacity="1"><g transform="translate(236.015345, 264.034159)"><g><path d="M 22.140625 -27.296875 L 22.140625 -22.09375 L 8.90625 -22.09375 L 8.90625 -16.28125 L 20.609375 -16.28125 L 20.609375 -11.09375 L 8.90625 -11.09375 L 8.90625 -5.1875 L 22.65625 -5.1875 L 22.65625 0 L 3.515625 0 L 3.515625 -27.296875 Z M 22.140625 -27.296875 "/></g></g></g><g fill="#000000" fill-opacity="1"><g transform="translate(264.380932, 264.034159)"><g><path d="M 18.25 0 L 12.5 -8.671875 L 8.90625 -8.671875 L 8.90625 0 L 3.515625 0 L 3.515625 -27.296875 L 11.796875 -27.296875 C 15.179688 -27.296875 17.804688 -26.472656 19.671875 -24.828125 C 21.535156 -23.179688 22.46875 -20.9375 22.46875 -18.09375 C 22.46875 -16.414062 22.113281 -14.835938 21.40625 -13.359375 C 20.707031 -11.890625 19.628906 -10.738281 18.171875 -9.90625 L 24.515625 0 Z M 8.90625 -13.875 L 12.71875 -13.875 C 14.175781 -13.875 15.238281 -14.296875 15.90625 -15.140625 C 16.570312 -15.992188 16.90625 -16.914062 16.90625 -17.90625 C 16.90625 -18.894531 16.617188 -19.835938 16.046875 -20.734375 C 15.484375 -21.640625 14.382812 -22.09375 12.75 -22.09375 L 8.90625 -22.09375 Z M 8.90625 -13.875 "/></g></g></g></svg>