<svg xmlns="http://www.w3.org/2000/svg" xmlns:xlink="http://www.w3.org/1999/xlink" width="500" zoomAndPan="magnify" viewBox="0 0 375 374.999991" height="500" preserveAspectRatio="xMidYMid meet" version="1.0"><defs><g/><clipPath id="342e1a1376"><path d="M 105 194 L 137 194 L 137 227 L 105 227 Z M 105 194 " clip-rule="nonzero"/></clipPath><clipPath id="67b928195c"><path d="M 123.011719 194.746094 L 136.621094 207.558594 L 118.746094 226.542969 L 105.136719 213.730469 Z M 123.011719 194.746094 " clip-rule="nonzero"/></clipPath><clipPath id="aa6dc411f6"><path d="M 117.035156 171.609375 L 160.234375 171.609375 L 160.234375 214.808594 L 117.035156 214.808594 Z M 117.035156 171.609375 " clip-rule="nonzero"/></clipPath><clipPath id="7d9aba41c3"><path d="M 138.632812 171.609375 C 126.703125 171.609375 117.035156 181.28125 117.035156 193.210938 C 117.035156 205.140625 126.703125 214.808594 138.632812 214.808594 C 150.5625 214.808594 160.234375 205.140625 160.234375 193.210938 C 160.234375 181.28125 150.5625 171.609375 138.632812 171.609375 Z M 138.632812 171.609375 " clip-rule="nonzero"/></clipPath><clipPath id="0f4422505a"><path d="M 101 182.3125 L 149.359375 182.3125 L 149.359375 230 L 101 230 Z M 101 182.3125 " clip-rule="nonzero"/></clipPath></defs><g fill="#020202" fill-opacity="1"><g transform="translate(54.974525, 222.001281)"><g><path d="M 16.296875 -46.890625 L 6.234375 -46.890625 L 6.234375 -58.78125 L 16.296875 -58.78125 L 16.296875 -83.4375 C 16.296875 -91.9375 18.226562 -98.453125 22.09375 -102.984375 C 25.96875 -107.515625 31.632812 -109.78125 39.09375 -109.78125 C 41.175781 -109.78125 43.394531 -109.472656 45.75 -108.859375 C 48.113281 -108.242188 50.191406 -107.367188 51.984375 -106.234375 L 46.328125 -96.609375 C 44.910156 -98.117188 42.925781 -98.875 40.375 -98.875 C 36.78125 -98.875 34.0625 -97.644531 32.21875 -95.1875 C 30.382812 -92.738281 29.46875 -88.773438 29.46875 -83.296875 L 29.46875 -58.78125 L 48.15625 -58.78125 L 48.15625 -46.890625 L 29.46875 -46.890625 L 29.46875 0 L 16.296875 0 Z M 16.296875 -46.890625 "/></g></g></g><g fill="#020202" fill-opacity="1"><g transform="translate(99.737314, 222.001281)"><g><path d="M 6.375 -29.890625 C 6.375 -35.648438 7.765625 -40.914062 10.546875 -45.6875 C 13.335938 -50.457031 17.210938 -54.207031 22.171875 -56.9375 C 27.128906 -59.675781 32.722656 -61.046875 38.953125 -61.046875 C 45.191406 -61.046875 50.738281 -59.675781 55.59375 -56.9375 C 60.457031 -54.207031 64.234375 -50.476562 66.921875 -45.75 C 69.617188 -41.03125 70.96875 -35.742188 70.96875 -29.890625 C 70.96875 -24.035156 69.617188 -18.722656 66.921875 -13.953125 C 64.234375 -9.179688 60.429688 -5.425781 55.515625 -2.6875 C 50.609375 0.0507812 44.992188 1.421875 38.671875 1.421875 C 32.535156 1.421875 27.007812 0.125 22.09375 -2.46875 C 17.1875 -5.070312 13.335938 -8.734375 10.546875 -13.453125 C 7.765625 -18.179688 6.375 -23.660156 6.375 -29.890625 Z M 19.6875 -29.75 C 19.6875 -26.0625 20.507812 -22.660156 22.15625 -19.546875 C 23.8125 -16.429688 26.082031 -13.972656 28.96875 -12.171875 C 31.851562 -10.378906 35.039062 -9.484375 38.53125 -9.484375 C 44.007812 -9.484375 48.539062 -11.421875 52.125 -15.296875 C 55.71875 -19.171875 57.515625 -23.988281 57.515625 -29.75 C 57.515625 -35.507812 55.71875 -40.347656 52.125 -44.265625 C 48.539062 -48.179688 44.007812 -50.140625 38.53125 -50.140625 C 34.9375 -50.140625 31.722656 -49.21875 28.890625 -47.375 C 26.054688 -45.539062 23.8125 -43.0625 22.15625 -39.9375 C 20.507812 -36.820312 19.6875 -33.425781 19.6875 -29.75 Z M 19.6875 -29.75 "/></g></g></g><g fill="#020202" fill-opacity="1"><g transform="translate(167.873378, 222.001281)"><g><path d="M 6.375 -29.890625 C 6.375 -35.648438 7.765625 -40.914062 10.546875 -45.6875 C 13.335938 -50.457031 17.210938 -54.207031 22.171875 -56.9375 C 27.128906 -59.675781 32.722656 -61.046875 38.953125 -61.046875 C 45.191406 -61.046875 50.738281 -59.675781 55.59375 -56.9375 C 60.457031 -54.207031 64.234375 -50.476562 66.921875 -45.75 C 69.617188 -41.03125 70.96875 -35.742188 70.96875 -29.890625 C 70.96875 -24.035156 69.617188 -18.722656 66.921875 -13.953125 C 64.234375 -9.179688 60.429688 -5.425781 55.515625 -2.6875 C 50.609375 0.0507812 44.992188 1.421875 38.671875 1.421875 C 32.535156 1.421875 27.007812 0.125 22.09375 -2.46875 C 17.1875 -5.070312 13.335938 -8.734375 10.546875 -13.453125 C 7.765625 -18.179688 6.375 -23.660156 6.375 -29.890625 Z M 19.6875 -29.75 C 19.6875 -26.0625 20.507812 -22.660156 22.15625 -19.546875 C 23.8125 -16.429688 26.082031 -13.972656 28.96875 -12.171875 C 31.851562 -10.378906 35.039062 -9.484375 38.53125 -9.484375 C 44.007812 -9.484375 48.539062 -11.421875 52.125 -15.296875 C 55.71875 -19.171875 57.515625 -23.988281 57.515625 -29.75 C 57.515625 -35.507812 55.71875 -40.347656 52.125 -44.265625 C 48.539062 -48.179688 44.007812 -50.140625 38.53125 -50.140625 C 34.9375 -50.140625 31.722656 -49.21875 28.890625 -47.375 C 26.054688 -45.539062 23.8125 -43.0625 22.15625 -39.9375 C 20.507812 -36.820312 19.6875 -33.425781 19.6875 -29.75 Z M 19.6875 -29.75 "/></g></g></g><g fill="#020202" fill-opacity="1"><g transform="translate(236.009448, 222.001281)"><g><path d="M 72.671875 -109.78125 L 72.671875 0 L 59.359375 0 L 59.359375 -9.203125 C 56.523438 -5.898438 53.050781 -3.300781 48.9375 -1.40625 C 44.832031 0.476562 40.320312 1.421875 35.40625 1.421875 C 29.9375 1.421875 24.976562 0.0976562 20.53125 -2.546875 C 16.09375 -5.191406 12.625 -8.898438 10.125 -13.671875 C 7.625 -18.441406 6.375 -23.941406 6.375 -30.171875 C 6.375 -36.492188 7.695312 -41.992188 10.34375 -46.671875 C 12.988281 -51.347656 16.625 -54.910156 21.25 -57.359375 C 25.875 -59.816406 31.113281 -61.046875 36.96875 -61.046875 C 41.40625 -61.046875 45.675781 -60.125 49.78125 -58.28125 C 53.894531 -56.445312 57.132812 -53.925781 59.5 -50.71875 L 59.5 -109.78125 Z M 39.515625 -9.921875 C 44.617188 -9.921875 48.941406 -11.285156 52.484375 -14.015625 C 56.023438 -16.753906 58.316406 -20.441406 59.359375 -25.078125 L 59.359375 -36.125 C 58.222656 -40.375 55.8125 -43.84375 52.125 -46.53125 C 48.445312 -49.226562 44.242188 -50.578125 39.515625 -50.578125 C 35.929688 -50.578125 32.628906 -49.703125 29.609375 -47.953125 C 26.585938 -46.203125 24.175781 -43.789062 22.375 -40.71875 C 20.582031 -37.65625 19.6875 -34.1875 19.6875 -30.3125 C 19.6875 -26.53125 20.582031 -23.082031 22.375 -19.96875 C 24.175781 -16.851562 26.585938 -14.398438 29.609375 -12.609375 C 32.628906 -10.816406 35.929688 -9.921875 39.515625 -9.921875 Z M 39.515625 -9.921875 "/></g></g></g><g clip-path="url(#342e1a1376)"><g clip-path="url(#67b928195c)"><path fill="#ffffff" d="M 123.011719 194.746094 L 136.621094 207.558594 L 118.753906 226.535156 L 105.144531 213.722656 Z M 123.011719 194.746094 " fill-opacity="1" fill-rule="nonzero"/></g></g><g clip-path="url(#aa6dc411f6)"><g clip-path="url(#7d9aba41c3)"><path fill="#8cc342" d="M 117.035156 171.609375 L 160.234375 171.609375 L 160.234375 214.808594 L 117.035156 214.808594 Z M 117.035156 171.609375 " fill-opacity="1" fill-rule="nonzero"/></g></g><g clip-path="url(#0f4422505a)"><path fill="#000000" d="M 137.902344 205.664062 C 140.730469 202.839844 149.339844 193.480469 149.339844 193.480469 C 149.339844 193.480469 148.730469 192.550781 147.25 190.851562 L 137.765625 200.335938 C 137.234375 200.867188 136.378906 200.867188 135.855469 200.339844 C 135.324219 199.808594 135.324219 198.957031 135.855469 198.425781 L 145.429688 188.851562 C 145.054688 188.453125 144.640625 188.035156 144.199219 187.585938 C 143.703125 187.09375 143.246094 186.652344 142.8125 186.242188 L 133.328125 195.726562 C 132.796875 196.257812 131.945312 196.257812 131.421875 195.726562 C 130.890625 195.199219 130.886719 194.347656 131.417969 193.820312 L 140.8125 184.425781 C 139.148438 182.980469 138.222656 182.359375 138.222656 182.359375 C 138.222656 182.359375 130.308594 189.464844 126.003906 193.765625 C 121.203125 198.566406 125.558594 202.984375 123.667969 204.871094 C 121.78125 206.757812 113.128906 213.765625 108.710938 218.191406 C 100.609375 226.289062 101.488281 227.546875 102.800781 228.863281 C 104.113281 230.183594 105.375 231.054688 113.476562 222.953125 C 117.894531 218.539062 124.902344 209.890625 126.789062 208 C 128.679688 206.109375 133.03125 210.53125 137.902344 205.664062 Z M 137.902344 205.664062 " fill-opacity="1" fill-rule="nonzero"/></g><g fill="#8cc342" fill-opacity="0.4"><g transform="translate(143.431212, 150.879124)"><g><path d="M 18.09375 -20.6875 C 15.71875 -22 13.65625 -22.65625 11.90625 -22.65625 C 10.71875 -22.65625 9.796875 -22.421875 9.140625 -21.953125 C 8.484375 -21.484375 8.15625 -20.78125 8.15625 -19.84375 C 8.15625 -18.976562 8.628906 -18.21875 9.578125 -17.5625 C 10.535156 -16.90625 11.804688 -16.28125 13.390625 -15.6875 C 14.671875 -15.21875 15.769531 -14.675781 16.6875 -14.0625 C 17.601562 -13.457031 18.363281 -12.625 18.96875 -11.5625 C 19.570312 -10.5 19.875 -9.15625 19.875 -7.53125 C 19.875 -6.113281 19.507812 -4.804688 18.78125 -3.609375 C 18.050781 -2.410156 16.976562 -1.457031 15.5625 -0.75 C 14.15625 -0.0507812 12.476562 0.296875 10.53125 0.296875 C 8.894531 0.296875 7.273438 0.0546875 5.671875 -0.421875 C 4.066406 -0.910156 2.570312 -1.644531 1.1875 -2.625 L 3.5625 -6.828125 C 4.5 -6.128906 5.570312 -5.554688 6.78125 -5.109375 C 8 -4.671875 9.085938 -4.453125 10.046875 -4.453125 C 11.179688 -4.453125 12.171875 -4.691406 13.015625 -5.171875 C 13.859375 -5.648438 14.28125 -6.4375 14.28125 -7.53125 C 14.28125 -8.9375 12.957031 -10.160156 10.3125 -11.203125 C 8.75 -11.816406 7.445312 -12.40625 6.40625 -12.96875 C 5.375 -13.539062 4.476562 -14.359375 3.71875 -15.421875 C 2.96875 -16.484375 2.59375 -17.816406 2.59375 -19.421875 C 2.59375 -21.773438 3.363281 -23.664062 4.90625 -25.09375 C 6.457031 -26.53125 8.519531 -27.3125 11.09375 -27.4375 C 13.113281 -27.4375 14.800781 -27.207031 16.15625 -26.75 C 17.519531 -26.289062 18.847656 -25.644531 20.140625 -24.8125 Z M 18.09375 -20.6875 "/></g></g></g><g fill="#8cc342" fill-opacity="0.4"><g transform="translate(168.719323, 150.879124)"><g><path d="M 17.015625 -5.34375 L 7.96875 -5.34375 L 5.75 0 L 0.4375 0 L 12.75 -28.359375 L 13.046875 -28.359375 L 25.359375 0 L 19.125 0 Z M 15.234375 -9.859375 L 12.609375 -16.5 L 9.859375 -9.859375 Z M 15.234375 -9.859375 "/></g></g></g><g fill="#8cc342" fill-opacity="0.4"><g transform="translate(198.197265, 150.879124)"><g><path d="M 20.578125 -27.296875 L 20.578125 -22.09375 L 8.90625 -22.09375 L 8.90625 -15.90625 L 19.015625 -15.90625 L 19.015625 -10.71875 L 8.90625 -10.71875 L 8.90625 0 L 3.515625 0 L 3.515625 -27.296875 Z M 20.578125 -27.296875 "/></g></g></g><g fill="#8cc342" fill-opacity="0.4"><g transform="translate(224.115705, 150.879124)"><g><path d="M 22.140625 -27.296875 L 22.140625 -22.09375 L 8.90625 -22.09375 L 8.90625 -16.28125 L 20.609375 -16.28125 L 20.609375 -11.09375 L 8.90625 -11.09375 L 8.90625 -5.1875 L 22.65625 -5.1875 L 22.65625 0 L 3.515625 0 L 3.515625 -27.296875 Z M 22.140625 -27.296875 "/></g></g></g><g fill="#8cc342" fill-opacity="1"><g transform="translate(143.431212, 150.879124)"><g><path d="M 18.09375 -20.6875 C 15.71875 -22 13.65625 -22.65625 11.90625 -22.65625 C 10.71875 -22.65625 9.796875 -22.421875 9.140625 -21.953125 C 8.484375 -21.484375 8.15625 -20.78125 8.15625 -19.84375 C 8.15625 -18.976562 8.628906 -18.21875 9.578125 -17.5625 C 10.535156 -16.90625 11.804688 -16.28125 13.390625 -15.6875 C 14.671875 -15.21875 15.769531 -14.675781 16.6875 -14.0625 C 17.601562 -13.457031 18.363281 -12.625 18.96875 -11.5625 C 19.570312 -10.5 19.875 -9.15625 19.875 -7.53125 C 19.875 -6.113281 19.507812 -4.804688 18.78125 -3.609375 C 18.050781 -2.410156 16.976562 -1.457031 15.5625 -0.75 C 14.15625 -0.0507812 12.476562 0.296875 10.53125 0.296875 C 8.894531 0.296875 7.273438 0.0546875 5.671875 -0.421875 C 4.066406 -0.910156 2.570312 -1.644531 1.1875 -2.625 L 3.5625 -6.828125 C 4.5 -6.128906 5.570312 -5.554688 6.78125 -5.109375 C 8 -4.671875 9.085938 -4.453125 10.046875 -4.453125 C 11.179688 -4.453125 12.171875 -4.691406 13.015625 -5.171875 C 13.859375 -5.648438 14.28125 -6.4375 14.28125 -7.53125 C 14.28125 -8.9375 12.957031 -10.160156 10.3125 -11.203125 C 8.75 -11.816406 7.445312 -12.40625 6.40625 -12.96875 C 5.375 -13.539062 4.476562 -14.359375 3.71875 -15.421875 C 2.96875 -16.484375 2.59375 -17.816406 2.59375 -19.421875 C 2.59375 -21.773438 3.363281 -23.664062 4.90625 -25.09375 C 6.457031 -26.53125 8.519531 -27.3125 11.09375 -27.4375 C 13.113281 -27.4375 14.800781 -27.207031 16.15625 -26.75 C 17.519531 -26.289062 18.847656 -25.644531 20.140625 -24.8125 Z M 18.09375 -20.6875 "/></g></g></g><g fill="#8cc342" fill-opacity="1"><g transform="translate(168.719323, 150.879124)"><g><path d="M 17.015625 -5.34375 L 7.96875 -5.34375 L 5.75 0 L 0.4375 0 L 12.75 -28.359375 L 13.046875 -28.359375 L 25.359375 0 L 19.125 0 Z M 15.234375 -9.859375 L 12.609375 -16.5 L 9.859375 -9.859375 Z M 15.234375 -9.859375 "/></g></g></g><g fill="#8cc342" fill-opacity="1"><g transform="translate(198.197265, 150.879124)"><g><path d="M 20.578125 -27.296875 L 20.578125 -22.09375 L 8.90625 -22.09375 L 8.90625 -15.90625 L 19.015625 -15.90625 L 19.015625 -10.71875 L 8.90625 -10.71875 L 8.90625 0 L 3.515625 0 L 3.515625 -27.296875 Z M 20.578125 -27.296875 "/></g></g></g><g fill="#8cc342" fill-opacity="1"><g transform="translate(224.115705, 150.879124)"><g><path d="M 22.140625 -27.296875 L 22.140625 -22.09375 L 8.90625 -22.09375 L 8.90625 -16.28125 L 20.609375 -16.28125 L 20.609375 -11.09375 L 8.90625 -11.09375 L 8.90625 -5.1875 L 22.65625 -5.1875 L 22.65625 0 L 3.515625 0 L 3.515625 -27.296875 Z M 22.140625 -27.296875 "/></g></g></g></svg>